<svg xmlns="http://www.w3.org/2000/svg" xmlns:xlink="http://www.w3.org/1999/xlink" height="385" viewBox="0 0 720 288" width="961" stroke-linecap="butt" stroke-linejoin="round"><path d="M0 288h720V0H0z" fill="#fff"/><path clip-path="url(#D)" d="M112.32 143.28l66.96-66.972m-66.96 66.972l66.96 66.972m22.32-22.614l89.28-88.716m-89.28 0l33.48 33.486m33.48 32.616l22.32 22.614" stroke-linecap="square" fill="none" stroke="#00a4ef" stroke-width="28"/><defs><path d="M9.813 72.906h9.86V8.297h35.5V0H9.813z" id="A"/><path d="M54.89 54.688l-19.78-26.61L55.906 0H45.313L29.39 21.484 13.484 0H2.875l21.25 28.61L4.688 54.688H15.28l14.5-19.484 14.5 19.484z" id="B"/><path d="M32.172-5.078q-3.797-9.766-7.422-12.734-3.61-2.984-9.656-2.984H7.906v7.516h5.28q3.703 0 5.75 1.766Q21-9.766 23.484-3.22l1.61 4.094-22.11 53.813H12.5l17.094-42.766 17.094 42.766h9.516z" id="C"/></defs><g transform="matrix(1.8 0 0 -1.8 335.52 208.512)"><use xlink:href="#A"/><use x="55.713" xlink:href="#B"/><use x="114.893" xlink:href="#C"/></g><defs><clipPath id="D"><path d="M90 34.56h558V252H90z"/></clipPath></defs></svg>